<?xml version="1.0" encoding="UTF-8"?>
<svg id="Layer_2" data-name="Layer 2" xmlns="http://www.w3.org/2000/svg" viewBox="0 0 134.01 34.5">
  <defs>
    <style>
      .cls-1 {
        fill: #414142;
      }
    </style>
  </defs>
  <g id="Layer_1-2" data-name="Layer 1">
    <g>
      <g>
        <path class="cls-1" d="M3.29,33.9l-.02.02h.04s-.01-.01-.02-.02Z"/>
        <path class="cls-1" d="M133.53,24.85c-1.14-2.68-4.73-5.69-15.29-5.02L100.66,0h-3.68l.02,20.13h-4.29V0h-4.44v20.13h-17.68V0h-4.44v20.13h-19.93V0h-4.44v20.13h-4.77l.02-20.13h-3.67L15.77,19.83c-10.54-.66-14.14,2.34-15.28,5.02-1.21,2.82-.12,6.37,2.8,9.05t.02.02h4.55l9.55-10.04h15.12l-.16,10.04h4.63v-10.14h4.78v10.14h20.83v-4.2h-16.39v-5.94h20.17c.47,2.79,1.61,5.11,3.44,6.97,2.45,2.5,5.65,3.75,9.6,3.75s7.15-1.25,9.6-3.75c1.82-1.86,2.97-4.18,3.44-6.97h4.53v10.14h4.65l-.17-10.04h15.13l9.54,10.04h4.56s.01-.01.02-.01c2.92-2.69,4.01-6.24,2.8-9.06ZM5.71,31.17c-1.68-1.57-2.44-3.56-1.87-4.88.32-.73,1.83-2.86,8.78-2.91l-6.91,7.79ZM32.95,19.63l-11.73-.03,11.88-13.98-.15,14.01ZM85.88,27.83c-1.59,1.64-3.74,2.46-6.45,2.46s-4.86-.82-6.45-2.46c-1.03-1.06-1.73-2.41-2.08-4.05h17.06c-.35,1.64-1.05,2.99-2.08,4.05ZM101.06,19.63l-.15-14.01,11.89,13.98-11.74.03ZM128.3,31.17l-6.9-7.79c6.95.06,8.46,2.18,8.77,2.91.57,1.32-.2,3.32-1.87,4.88Z"/>
      </g>
      <path class="cls-1" d="M3.35,33.92l-.02.02-.02-.02h.04Z"/>
      <path class="cls-1" d="M130.73,33.91s-.01,0-.02.01h.03-.01Z"/>
      <path class="cls-1" d="M130.71,33.92l-.02.02-.02-.02h.04Z"/>
    </g>
  </g>
</svg>
