<?xml version="1.0" encoding="UTF-8"?>
<svg id="Layer_2" data-name="Layer 2" xmlns="http://www.w3.org/2000/svg" viewBox="0 0 441.05 109.27">
  <defs>
    <style>
      .cls-1 {
        fill: #1d1d1b;
      }
    </style>
  </defs>
  <g id="Livello_1" data-name="Livello 1">
    <path class="cls-1" d="M439.52,78.62c-3.63-8.44-10.53-16.74-48.3-16.65L337.65,0h-14.06l.05,62.23h-22.42V.12h-14.06v62.11h-55.94V.12h-14.06v62.11h-63.04V.13h-14.06v62.1h-22.43l.05-62.13h-14.06l-53.57,61.97c-38.02-.13-44.94,8.19-48.58,16.65-3.86,8.98.06,20.21,9.38,28.71h14.52s29.37-31.76,29.37-31.76h48.89v31.81l13.96-.05.03-31.73h22.44v31.76h65.91v-13.3h-51.85v-18.46h63.87c1.51,8.66,5.11,15.89,10.81,21.7,7.75,7.92,17.88,11.87,30.38,11.87s22.63-3.96,30.39-11.87h.01c5.7-5.81,9.3-13.04,10.81-21.7h23.26l.03,31.63,13.96.05v-31.81h48.89l29.37,31.77h0s14.51-.01,14.51-.01c9.31-8.5,12.96-19.73,9.1-28.71ZM18.61,98.46c-5.31-4.93-8.04-10.99-6.23-15.18.96-2.25,5.57-7.92,26.34-8.1l-20.11,23.28ZM103.63,62.21l-36.85-.11,36.85-44.23v44.34ZM279.6,88.18c-5.04,5.19-11.84,7.78-20.41,7.78s-15.37-2.59-20.41-7.78c-3.19-3.29-5.36-7.44-6.54-12.48h53.9c-1.17,5.04-3.35,9.2-6.54,12.48ZM337.64,62.11V17.77l36.85,44.23-36.85.11ZM422.54,98.21l-19.99-23.13c20.53.23,25.1,5.86,26.06,8.1,1.79,4.15-.86,10.13-6.07,15.03Z"/>
  </g>
</svg>